<?xml version="1.0" encoding="UTF-8"?><svg id="Layer_2" xmlns="http://www.w3.org/2000/svg" viewBox="0 0 235.44 235.44"><defs><style>.cls-1{fill:#ff4e75;}</style></defs><g id="Layer_11"><path class="cls-1" d="m229.11,164.1c4.06,4.06,6.33,9.55,6.33,15.29s-2.27,11.23-6.33,15.28l-34.44,34.44c-4.05,4.06-9.55,6.33-15.28,6.33s-11.23-2.27-15.29-6.33l-46.38-46.38-46.38,46.38c-4.06,4.06-9.55,6.33-15.29,6.33s-11.23-2.27-15.28-6.33L6.33,194.67c-8.44-8.44-8.44-22.13,0-30.57l46.38-46.38L6.33,71.34c-8.44-8.44-8.44-22.13,0-30.57L40.77,6.33c4.22-4.22,9.75-6.33,15.28-6.33s11.07,2.11,15.29,6.33l46.38,46.38L164.1,6.33c4.22-4.22,9.76-6.33,15.29-6.33s11.06,2.11,15.28,6.33l34.44,34.44c4.06,4.05,6.33,9.55,6.33,15.28s-2.27,11.23-6.33,15.29l-46.38,46.38,46.38,46.38Z"/></g></svg>