<?xml version="1.0" encoding="UTF-8"?><svg id="Layer_1" xmlns="http://www.w3.org/2000/svg" viewBox="0 0 100 100"><defs><style>.cls-1{fill:#000000;}</style></defs><g id="Artwork_1"><path class="cls-1" d="M0,74.83C0,69.47,.43,58.38,.46,58.05c1.27-13.82,6.2-26.33,13.6-37.96,.79-1.25,1.76-2.07,3.15-2.64,4.72-1.97,9.55-3.58,14.55-4.67,4.02-.87,4.1-.94,5.72,2.61,.72,1.56,1.62,1.95,3.25,1.71,5.48-.8,11-.77,16.49-.23,3.91,.39,3.94,.54,5.68-3.04,.66-1.37,1.33-1.91,3.02-1.56,5.94,1.25,11.69,3.05,17.26,5.44,.81,.35,1.47,.84,1.98,1.6,6.05,9.03,10.42,18.79,12.72,29.42,.75,3.47,1.58,6.95,1.9,10.48,.45,5.02,0,10.09,0,15.13-.44,.8-.84,1.3-1.56,1.81-7.07,4.99-14.7,8.83-22.92,11.5-.88,.29-1.47,.18-1.96-.66-1.29-2.17-2.6-4.32-3.94-6.44-.57-.9-.39-1.31,.61-1.72,1.89-.78,3.72-1.7,5.54-2.62,.5-.25,1.48-.45,1.14-1.2-.33-.73-1.05-1.42-2.08-1.19-.38,.08-.73,.29-1.09,.44-15.77,6.7-31.55,6.58-47.33,0-.36-.15-.71-.37-1.09-.45-1.03-.23-1.76,.5-2.09,1.2-.35,.75,.65,.91,1.16,1.16,1.82,.93,3.64,1.88,5.53,2.65,.98,.4,1.24,.79,.68,1.71-1.33,2.14-2.64,4.29-3.94,6.45-.47,.78-1.02,1-1.95,.69C15.64,84.72,7.33,80.72,0,74.83Zm57.56-20.69c-.45,4.36,4.39,10.91,10.09,9.75,4.13-.84,7.02-3.93,7.79-8.42,.7-4.04-1.17-8.44-4.46-10.46-2.77-1.7-5.65-1.9-8.48-.25-3.44,2-4.84,5.2-4.94,9.38Zm-15.26-.73c.03-3.28-1.37-6.49-4.75-8.55-2.77-1.69-5.72-1.68-8.47,.06-3.34,2.11-4.89,5.32-4.75,9.19,.14,3.95,1.85,7.15,5.54,8.92,.94,.45,1.71,1.42,2.85,1.34,5.48-.4,9.38-4.63,9.59-10.96Z"/></g></svg>