<?xml version="1.0" encoding="UTF-8"?><svg id="Layer_1" xmlns="http://www.w3.org/2000/svg" viewBox="0 0 50 50"><defs><style>.cls-1{fill:#f1f2f2;}</style></defs><g><path class="cls-1" d="M18.58,40.64c-.03,.63-.07,1.22-1,1.22h-.83c-1,0-1-.67-1-1.34v-7.63c0-.42-.08-.52-.43-.52-.12,0-.28,.02-.48,.02-.42,0-.75-.07-.75-.47v-1.42c0-.33,.37-.5,.78-.5h4.61c.42,0,.78,.17,.78,.5v1.42c0,.4-.33,.47-.75,.47-.12,0-.27-.02-.47-.02-.42,0-.45,.1-.45,.52v7.74Z"/><path class="cls-1" d="M20.63,34.58c0-2.69,.25-4.66,3.77-4.66s3.59,1.94,3.59,4.59c0,1,.05,1.99,.05,2.87,0,2.64-.42,4.56-3.64,4.56-3.52,0-3.77-1.97-3.77-4.64,0-.45,.02-.9,.02-1.37s-.02-.92-.02-1.35Zm2.85-1.4v5.26c0,.5,0,1.17,.83,1.17s.83-.67,.83-1.17v-5.26c0-.42,0-.92-.83-.92s-.83,.5-.83,.92Z"/><path class="cls-1" d="M31.39,38.07v2.45c0,.67,0,1.34-1,1.34h-.83c-1,0-1-.67-1-1.34v-9.18c0-.67,0-1.34,1-1.34h3.62c1.8,0,2.82,1.47,2.82,3.8,0,.93-.27,2.19-.52,2.7-.53,1.13-2.12,1.3-3.05,1.3-.42,0-.62-.03-.62-.03-.4,0-.42,.13-.42,.28Zm-.02-4.99c0,.22,.02,.5,.02,.85s-.02,.63-.02,.83c0,.55,.1,.65,.77,.65,.88,0,.92-.73,.92-1.49s-.17-1.67-.92-1.67c-.67,0-.77,.22-.77,.82Z"/></g><path class="cls-1" d="M12.18,27.15c-.6,0-1.21-.23-1.67-.69-.92-.92-.92-2.41,0-3.34l14.49-14.49,14.49,14.49c.92,.92,.92,2.41,0,3.34-.92,.92-2.41,.92-3.34,0l-11.15-11.15-11.15,11.15c-.46,.46-1.06,.69-1.67,.69Z"/></svg>