<?xml version="1.0" encoding="UTF-8"?><svg id="Layer_1" xmlns="http://www.w3.org/2000/svg" viewBox="0 0 1280 1024"><defs><style>.cls-1,.cls-2{fill:#fff;}.cls-3{letter-spacing:-.02em;}.cls-2{font-family:VistaSansOTCE-Book, 'Vista Sans OTCE';font-size:36px;}.cls-4{letter-spacing:-.04em;}</style></defs><path class="cls-1" d="m575.14,889.54c7.41-7.76,14.88-15.59,22.35-23.42,4.42-4.63,8.79-9.31,13.26-13.88.66-.68,1.79-1.22,2.72-1.26,4.48-.17,8.97-.17,13.46-.15,1.17,0,1.77-.36,2.29-1.46,1.81-3.83,3.74-7.6,5.72-11.35.34-.65,1.07-1.32,1.76-1.52,17.01-4.88,34.04-9.71,51.07-14.53,1.74-.49,2.71.03,3.14,1.6,4.63,16.83,9.27,33.66,13.83,50.51.23.86.09,2.03-.32,2.83-1.87,3.67-3.84,7.29-5.9,10.86-.69,1.19-.67,2.12-.03,3.31,1.99,3.68,3.93,7.39,5.73,11.17.44.92.56,2.21.31,3.19-3.56,13.94-7.23,27.86-10.82,41.79-.62,2.43-.96,4.93-1.43,7.39-.48,2.48-1.48,3.03-3.85,2.35-12.58-3.61-25.18-7.18-37.77-10.76-4.06-1.15-8.14-2.26-12.18-3.47-.65-.2-1.35-.73-1.71-1.3-2.31-3.76-4.58-7.55-6.77-11.38-.58-1.01-1.21-1.43-2.39-1.44-4.19-.03-8.38-.09-12.56-.32-1-.06-2.19-.62-2.91-1.33-10.42-10.4-20.78-20.85-31.14-31.31-1.98-2-3.89-4.05-5.87-6.12Zm29.08-6.92c.65.08.99.16,1.34.16,13.46.07,26.92.12,40.38.22,1.07,0,1.55-.53,2.02-1.36,5.17-9.21,10.37-18.4,15.55-27.6,1.86-3.3,3.7-6.61,5.69-10.17-.6.11-.88.14-1.16.21-11.44,2.89-22.88,5.77-34.31,8.7-.75.19-1.55.64-2.09,1.2-6.9,7.14-13.75,14.32-20.61,21.49-2.21,2.31-4.42,4.64-6.8,7.15Zm78.87,45.01c.26-.24.4-.31.43-.41,3.13-11.9,6.26-23.8,9.34-35.72.2-.76.09-1.67-.12-2.44-2.04-7.28-4.12-14.55-6.2-21.82-1.46-5.1-2.95-10.19-4.53-15.62-.71,1.22-1.26,2.13-1.78,3.05-6.36,11.21-12.71,22.43-19.12,33.61-.62,1.09-.41,1.81.16,2.75,5.74,9.59,11.45,19.19,17.17,28.79,1.54,2.59,3.1,5.18,4.66,7.79Zm-78.14-31.19c.21.35.26.46.34.54,8.95,9.16,17.89,18.33,26.87,27.45.55.56,1.4.91,2.18,1.14,8.9,2.57,17.81,5.09,26.72,7.62,2.8.79,5.6,1.57,8.73,2.44-7.5-12.94-14.78-25.54-22.13-38.1-.27-.47-1.08-.86-1.65-.87-4.25-.13-8.49-.2-12.74-.21-9.37-.03-18.75,0-28.33,0Z"/><text class="cls-2" transform="translate(610.13 996.55)"><tspan x="0" y="0">unity</tspan></text><g><g><path class="cls-1" d="m115.1,41.52c12.58,0,25.16,0,37.74,0,14.86-.01,25.11,10.07,25.14,24.93.05,25.36.05,50.71,0,76.07-.03,14.47-10.31,24.7-24.76,24.71-25.45.02-50.91.02-76.36,0-14.29-.01-24.66-10.21-24.7-24.47-.07-25.55-.08-51.11,0-76.66.05-14.48,10.38-24.56,24.89-24.58,12.68-.01,25.36,0,38.03,0Zm-10.91,74.09c1.4,3.93,2.7,7.77,4.16,11.55.3.78,1.14,1.86,1.79,1.91,2.8.21,5.63.09,8.9.09-.63-1.81-1.07-3.1-1.52-4.37-5.27-14.73-10.52-29.47-15.87-44.17-.38-1.05-1.36-2.58-2.17-2.65-3.41-.3-6.87-.13-9.7-.13-6.04,17.28-11.9,34.05-17.95,51.34,2.81,0,5.08.2,7.28-.09.97-.13,2.26-1.07,2.63-1.96,1.32-3.2,2.24-6.56,3.48-9.79.28-.72,1.26-1.63,1.94-1.65,5.64-.13,11.28-.08,17.03-.08Zm27.19-3.59c6.54,0,12.86.04,19.18-.01,5.56-.05,5.56-.1,5.48-5.65-.18-11.7-9.37-18.77-20.72-15.94-7.38,1.83-12.29,7.88-13.53,16.63-1.61,11.38,4.22,20.64,14.41,22.42,3.07.54,6.34.48,9.46.16,7.12-.73,7.82-1.72,7.4-8.85,0-.17-.18-.32.04.05-4.68.23-9.1.92-13.44.55-5.18-.44-7.72-3.64-8.28-9.36Zm-29.71-5.05c-2.21-6.83-4.33-13.38-6.45-19.93-.19.03-.38.07-.58.1-2.09,6.54-4.18,13.08-6.33,19.83h13.35Zm37.57-9.54c-4.38.14-7.68,3.57-7.42,7.66h14.99c.02-4.92-2.93-7.81-7.56-7.66Z"/><text class="cls-2" transform="translate(17.34 211.54)"><tspan x="0" y="0">after effects</tspan></text></g><g><path class="cls-1" d="m325,167.23c-12.58,0-25.16,0-37.74,0-14.85,0-25.1-10.09-25.13-24.95-.05-25.36-.05-50.71,0-76.07.03-14.45,10.33-24.68,24.78-24.69,25.45-.02,50.91-.02,76.36,0,14.28.01,24.64,10.22,24.68,24.49.07,25.55.07,51.11-.01,76.66-.05,14.45-10.39,24.54-24.91,24.56-12.68,0-25.36,0-38.03,0Zm-33.46-38.15c2.98,0,5.36.16,7.69-.09.8-.08,1.86-1.02,2.17-1.81,1.23-3.13,2.09-6.41,3.38-9.51.37-.88,1.71-1.87,2.65-1.91,4.75-.2,9.51-.04,14.26-.13,1.63-.03,2.49.47,2.98,2.11.97,3.22,2.11,6.39,3.35,9.52.3.74,1.23,1.69,1.93,1.74,2.73.2,5.49.08,8.37.08-.06-.72-.02-1.13-.14-1.48-5.77-16.12-11.54-32.24-17.37-48.34-.22-.6-1.01-1.37-1.56-1.39-3.52-.13-7.04-.06-9.84-.06-6.05,17.34-11.87,34.03-17.88,51.27Zm62.02-38.25h-9.18v38.05h9.18v-38.05Zm.74-10.7c.07-3.25-1.83-5.34-4.95-5.46-3.24-.13-5.61,1.97-5.75,5.09-.15,3.16,2.03,5.55,5.19,5.69,3.11.14,5.46-2.12,5.52-5.32Zm-39.7,6.02c-2.33,7.34-4.43,13.94-6.58,20.74h13.29c-2.22-6.87-4.36-13.49-6.71-20.74Z"/><text class="cls-2" transform="translate(244.38 211.54)"><tspan x="0" y="0">illust</tspan><tspan class="cls-3" x="81.14" y="0">r</tspan><tspan x="94.28" y="0">ator</tspan></text></g><g><path class="cls-1" d="m472.19,104.33c0-12.58,0-25.16,0-37.74,0-15.02,10.14-25.14,25.23-25.15,25.16-.01,50.32,0,75.47,0,14.77,0,24.98,10.25,24.99,25.08.01,25.26.01,50.51,0,75.77,0,14.79-10.23,24.99-25.07,24.99-25.16.01-50.32.02-75.47,0-15.04-.01-25.15-10.18-25.15-25.23,0-12.58,0-25.16,0-37.74Zm65.91,24.82c-6.16-17.08-12.08-33.55-18.07-49.99-.21-.58-1.05-1.29-1.62-1.31-3.42-.12-6.84-.06-9.69-.06-6.03,17.31-11.87,34.07-17.92,51.4,2.64,0,4.7-.11,6.73.03,1.9.13,2.86-.59,3.41-2.43,1.11-3.69,2.43-7.31,3.72-11.12,5.74,0,11.37-.07,17.01.08.75.02,1.81,1.01,2.13,1.8,1.26,3.12,2.2,6.36,3.45,9.48.34.84,1.28,1.95,2.03,2.02,2.73.24,5.49.1,8.81.1Zm36.23.02v-38.33h-9.39c0,1.17,0,2.14,0,3.11,0,7.23-.18,14.47.06,21.7.11,3.24-1.3,4.7-4.08,5.53-5.76,1.72-9.65-.92-9.83-7.04-.19-6.73-.06-13.47-.09-20.21,0-1.04-.1-2.08-.15-3.1h-8.73c0,9.85-.41,19.55.16,29.2.33,5.53,4.18,8.67,9.47,9.62,4.92.89,9.42-.2,13.47-3.17,2.12,4.94,6.09,1.83,9.12,2.69Zm-53.73-22.4c-2.24-6.89-4.37-13.43-6.69-20.59-2.3,7.22-4.39,13.76-6.57,20.59h13.26Z"/><text class="cls-2" transform="translate(466.97 211.54)"><tspan x="0" y="0">audition</tspan></text></g><g><path class="cls-1" d="m682.18,104.2c0-12.68,0-25.35,0-38.03.01-14.31,10.47-24.68,24.83-24.67,25.25.02,50.51.04,75.76.04,15.03,0,25.12,10.09,25.13,25.18,0,25.25,0,50.51,0,75.76,0,14.46-10.24,24.75-24.64,24.76-25.35.01-50.71.01-76.06,0-14.89,0-24.95-10.07-24.99-25.01-.03-12.68,0-25.35,0-38.03h-.03Zm13.73-26.08c-.21.33-.31.41-.31.49-.05,16.22-.07,32.45-.15,48.67,0,1.66.84,1.99,2.21,1.97,5.44-.04,10.9.23,16.32-.14,13.11-.9,22.29-9.47,24.12-22.11,2.2-15.14-6.16-27.07-20.88-28.75-7.01-.8-14.19-.14-21.32-.14Zm75.58,22.92c.42,1.67.66,2.6.88,3.54,1.38,5.88,2.7,11.78,4.15,17.64,1.75,7.1,1.8,7.02,9.23,7.02,1.91,0,2.77-.57,3.31-2.44,3.03-10.46,6.21-20.88,9.33-31.32.44-1.49.85-2.99,1.38-4.88-2.66,0-4.93-.17-7.16.09-.88.1-2.11,1.02-2.37,1.83-1.03,3.2-1.79,6.49-2.54,9.77-1.27,5.54-2.46,11.09-3.81,17.21-1.74-7.65-3.3-14.7-4.97-21.73-1.77-7.44-1.82-7.37-9.59-7.22-1.7.03-2.5.59-2.89,2.2-1,4.14-2.12,8.24-3.16,12.37-1.11,4.42-2.17,8.84-3.26,13.26-.63-.61-.77-1.16-.9-1.72-1.79-7.92-3.53-15.85-5.41-23.74-.2-.86-1.09-2.14-1.75-2.2-2.71-.25-5.45-.1-8.45-.1.24,1.2.35,1.97.55,2.7,2.61,9.65,5.24,19.3,7.87,28.95,1.89,6.95,1.9,6.84,9.02,6.99,2.35.05,3.27-.78,3.83-2.98,2.07-8.15,4.31-16.26,6.72-25.25Zm-45.04,11.46c3.43-6.38,2.8-15.7-1.4-20.82-3.98-4.85-13.34-7.26-19.9-5.11v34.2c10.66,1.17,17.73-1.64,21.3-8.27Z"/><text class="cls-2" transform="translate(635.27 211.54)"><tspan x="0" y="0">dreamweaver</tspan></text></g><g><path class="cls-1" d="m892.16,104.49c0-12.78-.01-25.55,0-38.33.02-14.29,10.22-24.58,24.51-24.61,25.55-.05,51.1-.08,76.65-.03,14.23.02,24.59,10.49,24.58,24.62-.02,25.06-.03,50.11-.05,75.17,0,16.16-9.74,25.93-25.85,25.94-24.96,0-49.91,0-74.87,0-14.83,0-24.97-10.17-24.97-25.03,0-12.58,0-25.16,0-37.73Zm79.92-15.34c-4.74.91-9.03,1.22-12.96,2.59-9.16,3.17-13.81,12.28-12.19,22.82,1.39,8.99,8.26,14.96,18.04,15.25,3.52.1,7.13-.28,10.58-1.01,6.07-1.28,6.04-1.46,5.97-7.5,0-.59,0-1.19,0-1.78,0-14.05,0-28.1,0-42.15,0-1.16,0-2.31,0-3.82-2.52,0-4.68.11-6.83-.03-2.1-.14-2.72.64-2.65,2.73.16,4.43.05,8.87.05,12.9Zm-42.89-11.17c0,1.44,0,2.7,0,3.95,0,13.67,0,27.34,0,41.01,0,6.26,0,6.14,6.21,6.31,2.57.07,3.39-.56,3.37-3.26-.14-15.06-.06-30.11-.08-45.17,0-.94-.1-1.88-.15-2.85h-9.35Zm42.91,31.77c0-3.06-.06-6.13.03-9.19.05-1.68-.51-2.61-2.27-2.7-4.72-.24-8.95.85-11.58,5.09-2.85,4.59-2.72,9.48-.07,14.08,2.5,4.33,6.81,4.95,11.38,4.65,1.78-.11,2.61-.82,2.53-2.75-.13-3.06-.04-6.12-.04-9.18h.01Z"/><text class="cls-2" transform="translate(886.45 211.54)"><tspan x="0" y="0">indesign</tspan></text></g><g><path class="cls-1" d="m1227.87,104.2c0,12.87.02,25.75,0,38.62-.03,13.8-10.07,24.24-23.86,24.32-25.85.16-51.7.16-77.54.04-14.14-.06-24.29-10.47-24.3-24.56-.02-25.45-.01-50.9.03-76.36.02-12.93,8.17-22.66,20.46-24.56,1.17-.18,2.37-.22,3.55-.22,25.85-.01,51.7-.04,77.55,0,13.66.02,24.08,10.44,24.12,24.09.04,12.87,0,25.75,0,38.62Zm-82.88,24.71v-16.41c1.73,0,3.13.21,4.45-.04,4.43-.84,9.11-1.18,13.17-2.92,6.56-2.8,8.9-8.74,8.66-15.58-.23-6.73-3.44-11.75-9.76-14.34-8.38-3.44-17.11-1.53-25.7-1.8v51.1h9.18Zm33.11-38.34v38.32h9.34c.06-1.2.14-2.26.15-3.32.01-6.53.12-13.07-.05-19.59-.07-2.62,1-4.26,3.27-4.99,2.97-.95,6.05-1.58,9.28-2.4v-8.68c-5.14-.35-8.99,2.05-12.78,5.33-.27-1.26-.3-2.28-.72-3.1-.34-.66-1.13-1.46-1.78-1.51-2.23-.19-4.49-.07-6.7-.07Zm-22.3,12.67c3.5-.74,5.58-3.26,6.03-6.88.43-3.47-.38-6.56-3.5-8.54-4.11-2.61-8.63-1.95-13.13-1.7v18.27c3.8-.38,7.27-.44,10.6-1.14Z"/><text class="cls-2" transform="translate(1092.5 211.54)"><tspan x="0" y="0">premeire</tspan></text></g></g><g><g><path class="cls-1" d="m842.3,672.23c-4.69-.05-14.56-.37-15.08-.42-.96-1.78-18.77-36.64-19.67-38.41v-7.49h18.91v-7.7h-26.9v46.18h-15.46v-61.72h57.89v38.6h-11.33s9.96,20.84,11.22,23.41c.13,2.48.27,4.9.42,7.55Zm-81.73-54.14v7.64h-38.56s0,15.51,0,15.51h38.53v7.77h-38.57s0,15.42,0,15.42h54.18s0-61.67,0-61.67h-54.18s0,15.33,0,15.33h38.6Zm-46.49-.03v-15.35h-53.96v19.08l27.22,27.31h-27.31v15.33h53.95v-19.17l-27.13-27.18h27.22Zm-62.34,39.3c-.55-.66-26.81-52.07-26.91-54.56h-15.35s-26.2,53.68-26.85,54.73c-.18,2.28-.24,4.57-.34,6.79h19.26c.12-2.62,11.89-28.21,12.07-30.64h7.27c.2,2.6,11.97,28.18,12.1,30.68h19.16c-.18-2.28.46-5.06-.42-7Zm-193.33-54.7v61.71h15.46v-46.15h23.06v7.68h-15.14v15.28c2.11.04,27.99.08,30.65,0v-38.52h-54.03Zm100.6.07v22.95h-23.24v-22.99h-15.3v61.69h15.42v-22.97h23.24v22.96h15.35v-61.64h-15.47Z"/><text class="cls-2" transform="translate(584.84 731.97)"><tspan x="0" y="0">phaser 3</tspan></text></g><g><path class="cls-1" d="m347.16,570.32c4.04-.04,7.82.97,10.84,3.25,8.39,6.33,17.24,12.13,23.93,20.51,4.88,6.12,5.97,12.98,4.83,20.39-.8,5.2-2.82,10.03-5.05,14.77-1.04,2.21-2.01,4.3.74,6.03.37.24.55.81.78,1.25,3.07,5.83,3.28,11.97,2.33,18.36-1.31,8.8-4.75,16.39-12.19,21.56-4.41,3.06-9.15,5.79-14.94,3.59-1.32-.5-2.69-.9-3.94-1.54-1.1-.57-1.74-.31-2.59.51-2.02,1.94-2.88,4.43-3.81,6.94-1.08,2.94-.02,5.82.03,8.72.01.79-.19,1.2-.96,1.49-.86.32-1.18-.39-1.36-.77-.76-1.61-2.1-2.71-3.39-3.74-2.61-2.08-5.89-4.17-8.95-2.52-2.5,1.36-3.6.63-5.44-.56-4.48-2.9-9.14-3.69-14.42-1.6-5.53,2.19-11.37,3.34-17.94,1.31,1.56,0,2.55.1,3.51-.02,2.46-.32,4.84-.79,6.95-2.35,5.13-3.8,7.38-9.32,9.12-15.1,1.06-3.51,2.08-7.05,2.33-10.95,1.23.86,1.06,2.69,2.77,2.48-.78-4.15-.32-8.38-1.44-12.46-.35-1.29.39-2.17,1.75-2.63,2.85-.96,5.59-.41,8.39.23,2.39.54,4.76.52,7.19-.34,3.52-1.24,5.77-3.94,8.34-6.34,1.95-1.82,2.78-4.07,2.43-6.58-1.21-8.86-4.86-16.32-12.85-21.05-4.35-2.57-9.15-3.27-14.1-2.79-3.38.33-5.85,2.23-7.62,5.09-.13.2-.39.32-.59.48-1.11.85-1.71.41-2.12-.77-1.19-3.44-2.39-3.85-5.9-2.97-4.17,1.05-6.38,4.37-9.09,7.14-3.08,3.15-4.66,6.68-2.75,11.11,1.03,2.39.99,4.64-1.09,6.59-4.71,4.43-6.04,10.22-6.35,16.35-.13,2.56-.18,5.14.01,7.68.18,2.37-.99,2.99-2.89,2.51-1.68-.43-3.21-1.29-4.6-2.44-2.78-2.3-3.92-6.88-4.36-8.77s-.29-7.48,0-9.74,1.45-5.02,2.88-7.26c.33-.51.48-1.1,1.26-.89.72.2.41.81.47,1.26.19,1.42-.36,2.94.49,4.51,1.29-1.85.83-4.57,3.54-5.37-.09,3.49-1.7,6.78-.15,10.27.94-6.69,5.03-11.9,8.3-17.65-1.73-.39-2.94-.38-4.11.29-.38.22-1.25.73-1.23.22.08-2.55-1.26-.8-1.93-.67-.4.08-.68.33-1.04-.08-.49-.57-.09-.9.25-1.29,1.53-1.72,3.32-3,5.66-3.35,2.13-.32,4.18-1.29,4.39-3.46.3-3.01,1.01-5.95,1.22-8.97.27-4.01,1.14-7.89,2.54-11.67,1.83-4.93,4.79-9.16,8.25-13.02,3.6-4.02,7.57-7.72,12.2-10.55,5.96-3.64,12.59-4.7,19.46-4.64,1.32.01,10.64.01,11.97,0Zm-14.47,28.05c-.84-3.32-2.06-6.25-5.23-7.92-.68-.36-2.01-.37-1.81-1.32.21-.99,1.42-1.27,2.46-1.38,3.02-.3,5.81.59,8.53,1.71,3.93,1.63,7.07,4.45,10.33,7.08,1.13.91,2.56,2.28,4.01,1.18,1.19-.9-.05-2.38-.29-3.75,3.42-.46,5.44,1.62,7.1,3.95,4.23,5.94,4.84,12.99,5.68,19.93.34,2.76.6,5.53.58,8.33-.02,2.19,2.13,1.71,3.4,2.18,1.37.5.97-.83,1.25-1.45,1.01-2.23,1.07-4.68,1.59-7.01,1.44-6.45,1.33-12.95,1.15-19.46-.11-3.92-.8-7.99-2.93-11.24-7.77-11.85-16.01-15.93-29.88-11.79-8.74,2.6-15.28,8.43-21.33,14.85-2.12,2.25-3.68,5.02-4.3,8.22,1.97.34,3.62-.8,5.43-.93.67-.05,1.24-.28,1.39-.87.18-.7-.42-1.01-1.01-1.22-.42-.15-.88-.47-.75-.87.15-.47.68-.61,1.25-.68,2.49-.32,4.82-.16,7.17.96,1.89.9,3.87,1.99,6.22,1.47Zm23.75,55.45c.66-2.59,1.5-4.62,2.06-6.78.83-3.25,2.88-5.95,4.8-8.68,1.28-1.83,1.62-3.82-.89-5.07-1.75-.87-3.4-.73-4.63.97-1.12,1.55-2.36,3.06-3.21,4.76-1.26,2.51-2.48,5.11-2.37,8.05.05,1.31.27,1.65,1.02,1.35,2.19-.87,2.1.93,2.51,2.02.34.9-.26,1.99.71,3.39Zm12.16-16.37c-2.12.12-3.3,1.63-4.04,3.29-1.83,4.08-3.56,8.21-3.8,12.81-.04.82-.36,1.56.53,1.78.76.18,1-.57,1.19-1.3.5-1.92,1-3.86,1.73-5.7,1.17-2.92,3.04-5.39,5.38-7.52.67-.61,1.29-1.46.97-2.45-.28-.85-1.11-.95-1.96-.91Zm-72.76,41.8c-1.32-.84-1.5-3.39-.33-4.75,1.04-1.21,2.09-.62,3.06.27.36.33.83.56,1.26.82,5.2,3.07,8.24.88,9.93-3,1.06-2.43,2.07-4.87,2.74-7.44,2.18-8.48,1.84-16.51-3.87-23.74-3.42-4.34-8.99-5.87-13.67-3.4-3.87,2.04-6.29,5.36-7.35,9.61-1.19,4.77-.28,9.64-.54,14.45-.37,6.69,2.21,12.39,5.81,17.74,1.83,2.72,4.66,3.25,6.95,1.52-1.34-.69-2.73-1.27-3.98-2.07Zm28.91-57.17c-2.88,2.34-3.52,5.72-4.32,9.02-.36,1.48.98,1.87,1.93,2.24,1.02.39,1.43-.5,1.78-1.32,1.45-3.42,3.26-6.68,4.35-10.56-1.29.5-2.54-.35-3.74.62Zm-26.88,7.75c.02.83-.12,1.93,1.04,1.93.94,0,.85-.98,1.04-1.74.59-2.49,1.37-4.93,2.03-7.4.13-.47,1.03-1,.11-1.46-.58-.28-1.12.1-1.56.57-1.81,1.92-2.65,4.21-2.66,6.82,0,.43,0,.85,0,1.28Zm14.4,1.5c-1.02-.15-2.01.16-2.31,1.08-.36,1.12,1.03.95,1.56,1.43.53.47,1.28.77,1.98.96,1.6.46,2.38-.14,2.3-1.88-.09-2.09-1.63-1.44-2.77-1.58-.26,0-.52.03-.76,0Zm-6.88-.03c.12-.5-.26-1.62-1.5-1.5-1.21.11-1.93.93-2.17,1.8-.2.72.82.79,1.49.77.93.03,1.97-.18,2.18-1.07Z"/><text class="cls-2" transform="translate(251.98 731.97)"><tspan x="0" y="0">howle</tspan><tspan class="cls-4" x="98.68" y="0">r</tspan><tspan x="110.92" y="0">.js</tspan></text></g><g><path class="cls-1" d="m1018.36,692.66h-84.12v-108.55c.25-.02.5-.05.75-.05,17.74,0,35.48,0,53.22,0,.33,0,.66.07,1.15.12-8.76,28.26-17.49,56.41-26.22,84.57.26.1.39.2.53.2.9.02,1.81.02,2.71.04,8.89.12,17.63,1.2,26.07,4.12,9.44,3.26,17.73,8.25,23.97,16.24.78,1,1.31,2.21,1.95,3.32Zm-14.14-124.51c-1.01-.43-2.03-.81-3.05-1.22-.2,0-.4,0-.6,0-1.64,5.42-3.25,10.84-4.92,16.25-8.14,26.33-16.29,52.66-24.44,78.99-.15.47-.27.96-.36,1.28,3.17,0,6.33-.15,9.47.02,17.87.99,31.84,8.74,41.39,24.07.14.23.38.4.58.6v-107.34c-4.41-6.52-11.15-9.71-18.06-12.65Z"/><text class="cls-2" transform="translate(924.56 731.97)"><tspan x="0" y="0">turn.js</tspan></text></g></g><g><g><path class="cls-1" d="m213.44,304.67c17.96,0,35.93.02,53.89-.03,1.66,0,1.84.65,1.67,2.07-.51,4.35-.88,8.71-1.33,13.07-2.13,20.08-3.56,40.23-5.47,60.32-.69,8.92-1.97,17.75-2.29,26.71.03,3.58-.7,7.16-1.09,10.74-.13,1.16-1.2,1.01-1.87,1.2-11.33,3.18-22.67,6.35-34.04,9.4-3.68.99-7.29,3.01-11.21,2.23-14-3.3-27.7-7.94-41.65-11.48-2.25-.59-2.75-1.76-2.89-3.65-.54-10.26-1.77-20.45-2.48-30.7-.05-1.43.38-1.8,1.75-1.79,6.34.06,12.68.04,19.02,0,1.06,0,1.5.22,1.66,1.44.73,5.19.84,10.36,1.48,15.53-.1,1.03,1.11,1.29,1.9,1.51,6.98,1.93,13.99,3.77,20.96,5.71,2.14.59,3.98-.45,5.87-.92,5.99-1.49,11.91-3.28,17.9-4.8,1.98-.51,2.58-1.41,2.71-3.5.43-8.19,1.77-16.33,1.97-24.54.08-1.5-1.06-.67-1.5-.68-24.22-.17-48.45-.17-72.67-.07-2.06.01-2.45-.59-2.55-2.56-.29-5.94-.8-11.88-1.45-17.8-.24-2.2.51-2.51,2.45-2.51,24.87.04,49.75,0,74.62-.03,3.23,0,3.14,0,3.45-3.24.54-5.69,1.2-11.36,1.52-17.08.1-1.76-.51-1.65-1.73-1.65-10.65,0-21.3-.04-31.94-.05-15.93-.01-31.86-.05-47.8.05-2.19.01-2.92-.33-3.06-2.81-.32-5.98-1.14-11.93-1.86-17.88-.25-2.07.77-2.17,2.38-2.16,17.88.04,35.77.03,53.65.03v-.07Z"/><text class="cls-2" transform="translate(179.33 471.37)"><tspan x="0" y="0">css3</tspan></text></g><g><path class="cls-1" d="m419.27,304.6c17.89,0,35.77.03,53.66-.04,2,0,2.09.88,1.8,2.37-.58,2.98-.43,6.03-.81,9.01-.76,1.95-.12,11.82-2,11.55-26.99.03-53.98,0-80.97-.11-2.37-.01-2.81.73-2.61,2.84.57,6.05,1.05,12.12,1.44,18.18.1,1.56,1.08,1.12,1.86,1.12,8.78.02,17.56.02,26.34.01,16.83-.02,33.66-.03,50.49-.09,1.74,0,2.15.08,2.08,2.3-.62,9.15-1.56,18.27-2.46,27.4-.69,9.8-1.95,19.51-2.48,29.32.03,2.63-.67,5.24-.74,7.91-.03,1.33-1.01,2.07-2.45,2.46-13.83,3.76-27.65,7.54-41.42,11.52-2.17.63-3.94-.08-5.75-.57-13.44-3.63-26.84-7.41-40.26-11.13-1.15-.32-1.6-.85-1.71-2.16-.53-6.38-1.46-12.73-1.82-19.12-.24-4.26-.74-8.49-1.04-12.74-.1-1.45.3-2,1.85-1.98,6.34.08,12.68.07,19.02,0,1.5-.02,1.9.48,1.97,1.94.22,4.71.67,9.42.9,14.13.09,1.76,1.33,2.11,2.52,2.44,5.45,1.52,11.11,2.48,16.35,4.54,6.15,2.42,11.41-.35,16.96-1.66,4.05-.96,8-2.33,12.05-3.3,1.29-.31,1.41-.85,1.51-1.95.75-8.24,1.55-16.48,2.41-24.71.19-1.77-.76-1.74-2.02-1.74-13.17,0-26.34-.04-39.51-.05-10.73-.01-21.47-.1-32.19.07-2.55.04-3.15-1.08-3.31-3.15-1.53-20.73-3.44-41.43-5.39-62.12-.22-2.09.56-2.51,2.54-2.5,17.72.08,35.45.05,53.17.05,0-.02,0-.05,0-.07Z"/><text class="cls-2" transform="translate(379.68 471.37)"><tspan x="0" y="0">html5</tspan></text></g><g><path class="cls-1" d="m639.91,430.54c-20.8,0-41.6,0-62.4.01-.45,0-.55-.1-.55-.55.01-41.6.01-83.21,0-124.81,0-.45.1-.55.55-.55,41.6.01,83.21.01,124.81,0,.45,0,.55.1.55.55-.01,41.6-.01,83.21,0,124.81,0,.45-.1.55-.55.55-20.8-.01-41.6-.01-62.4-.01Zm33.27-9.97c1.17-.07,2.34-.04,3.51-.19,2.05-.26,4.06-.69,5.99-1.46,6.66-2.64,10.12-7.87,10.14-14.82,0-.59-.09-1.19-.12-1.77-.16-3.57-1.39-6.7-3.77-9.36-1.69-1.9-3.76-3.32-5.95-4.57-2.95-1.68-6.1-2.92-9.2-4.28-1.59-.7-3.17-1.4-4.57-2.45-1.54-1.15-2.34-2.65-2.27-4.61.07-2.11,1.07-3.58,2.95-4.45,2.31-1.07,6.05-.55,8,1.43.79.8,1.47,1.68,2.03,2.65.18.31.3.43.67.19,2.81-1.83,5.63-3.63,8.45-5.43.24-.16.33-.27.16-.56-1.42-2.39-3.16-4.5-5.46-6.1-2.79-1.94-5.95-2.69-9.27-2.95-2.19-.17-4.37-.03-6.52.42-6.06,1.26-11.67,5.64-12.52,13.25-.3,2.7-.12,5.38.79,7.96.85,2.4,2.23,4.48,4.11,6.21,2.54,2.34,5.55,3.92,8.69,5.3,2.44,1.07,4.93,2.05,7.31,3.26,1.16.59,2.27,1.25,3.2,2.18,1.42,1.42,1.72,3.18,1.36,5.03-.39,2-1.79,3.26-3.63,3.89-4.35,1.49-8.45.99-12.12-1.91-1.37-1.09-2.46-2.45-3.37-3.93-.29-.48-.51-.48-.96-.22-2.83,1.67-5.68,3.31-8.53,4.94-.41.23-.45.41-.23.81,2.91,5.33,7.39,8.73,13.14,10.48,2.6.79,5.3,1.12,8.03,1.07Zm-27.86-36.96s.01,0,.02,0c0-6.84,0-13.68.01-20.52,0-.53-.13-.66-.66-.65-3.47.03-6.94.03-10.41,0-.58,0-.76.11-.76.74.02,12.12.02,24.25.01,36.37,0,1.87.03,3.73-.19,5.6-.26,2.28-1.61,3.97-3.81,4.61-.7.2-1.4.21-2.11.24-2.2.11-3.99-.73-5.41-2.39-.86-1.01-1.53-2.14-2.18-3.28-.12-.21-.18-.42-.52-.21-3.03,1.85-6.06,3.68-9.1,5.51-.17.1-.27.15-.11.4.44.71.81,1.47,1.25,2.17,2.14,3.38,5.12,5.77,8.86,7.16,2.01.74,4.12,1.11,6.27,1.18,2.41.08,4.79-.05,7.13-.66,3.85-1.01,7.01-3.01,9.12-6.46,1.83-2.99,2.52-6.32,2.55-9.76.07-6.68.02-13.36.02-20.04Z"/><text class="cls-2" transform="translate(561.02 471.37)"><tspan x="0" y="0">javascript</tspan></text></g><g><path class="cls-1" d="m913.2,394.1c-.45,1.36-1.08,2.63-1.77,3.86-6.63,11.81-16.12,20.39-28.73,25.43-4.41,1.76-9,2.89-13.71,3.54-4.65.64-9.32.8-14,.52-2.88-.17-5.74-.52-8.6-.91-3.39-.46-6.58-1.57-9.77-2.73-2.08-.75-4.09-1.64-6.09-2.58-5.25-2.47-10.08-5.59-14.58-9.25-1.88-1.52-3.66-3.15-5.38-4.84-4.59-4.51-8.48-9.56-11.67-15.14-3.81-6.66-6.43-13.75-7.71-21.33-.68-4.07-.94-8.17-.69-12.29.52-8.33,2.96-16.02,7.7-22.93.34-.5.72-.97,1.1-1.44,2.33-2.95,4.65-5.89,6.98-8.83.12-.15.22-.34.42-.44.07.17-.04.27-.09.38-1.51,3.08-2.66,6.28-3.47,9.61-1.07,4.39-1.52,8.83-1.38,13.34.33,10.73,3.49,20.61,8.99,29.78,3.43,5.72,7.68,10.77,12.57,15.3,2.52,2.34,5.2,4.48,8.02,6.45,3.02,2.11,6.19,3.97,9.49,5.6,4.24,2.09,8.63,3.78,13.2,5,1.99.53,4.01.88,6.04,1.2,4.18.66,8.39.97,12.63.9,6.67-.12,13.18-1.13,19.48-3.37,6.01-2.13,11.43-5.27,16.15-9.57,1.59-1.45,3.06-3.02,4.42-4.69.15-.19.31-.38.46-.56Zm-74.13-80.88c-.17.23-.34.45-.5.68-1.41,1.98-2.82,3.97-4.22,5.95-.74,1.05-1.5,2.08-2.18,3.17-3.15,5.04-4.77,10.55-5.11,16.46-.23,4.01.15,7.98,1.11,11.89.63,2.57,1.44,5.08,2.57,7.48,2.3,4.86,5.1,9.39,8.85,13.32,3.28,3.43,6.85,6.47,10.87,8.99,3.77,2.37,7.79,4.22,12.03,5.57.84.27,1.67.63,2.55.76,1.23.18,2.46.38,3.7.52,3.89.45,7.78.6,11.69.33,2.94-.2,5.85-.64,8.7-1.38,9.33-2.44,16.89-7.49,22.54-15.33,1.84-2.55,3.36-5.28,4.51-8.21.07-.17.18-.34.14-.57-.2.13-.28.31-.39.45-1.82,2.43-3.92,4.59-6.32,6.44-6.36,4.92-13.63,7.39-21.6,7.93-3.21.21-6.41.05-9.59-.42-4.46-.66-8.77-1.88-12.9-3.69-4.45-1.94-8.57-4.43-12.34-7.5-6.16-5.02-11.06-11.04-14.38-18.3-3.22-7.05-4.57-14.41-3.59-22.15.52-4.14,1.73-8.06,3.66-11.76.1-.2.2-.39.3-.59-.02-.01-.04-.02-.05-.03Zm26.1-5.62c-.12.04-.17.15-.23.24-.81,1.11-1.63,2.22-2.43,3.34-3.73,5.26-5.01,11.1-4.06,17.44.55,3.67,1.9,7.06,3.85,10.2,3.44,5.53,8.14,9.66,14,12.47,2.13,1.02,4.32,1.89,6.66,2.32.76.14,1.53.24,2.29.34,3.45.45,6.89.42,10.3-.28,3.94-.8,7.47-2.46,10.53-5.09,2.62-2.24,4.6-4.97,6.26-7.96.03-.06.09-.13,0-.19-.02,0-.04,0-.05.02-.1.11-.2.23-.3.34-1.28,1.5-2.75,2.79-4.44,3.82-2.93,1.79-6.16,2.62-9.56,2.83-2.66.16-5.3-.04-7.93-.52-1.34-.24-2.67-.49-3.97-.88-5.84-1.76-10.87-4.83-14.98-9.35-3.67-4.04-6.26-8.67-7.47-14.02-.82-3.62-.86-7.25.07-10.87.37-1.43.92-2.79,1.52-4.14-.02-.02-.04-.04-.06-.06Z"/><text class="cls-2" transform="translate(802.07 471.37)"><tspan x="0" y="0">jquery</tspan></text></g><g><path class="cls-1" d="m1076.04,422.99h-32.74c-.39-.77-.39-.76-.78-.83-10.04-1.65-18.93-5.92-26.54-12.54-9.82-8.54-16.31-19.15-18.46-32.17-.07-.41-.11-.97-.8-.62v-55.4c.56.5.67-.08.79-.37,1.7-4,4.51-6.78,8.73-8.02.48-.14.88-.22.55-.84h105.34c-.36.63.09.7.55.84,4.65,1.4,7.7,4.43,9.11,9.08.14.46.2.91.84.57v51.62c-1.71.37-.63,1.7-.82,2.55-1.59,6.87-3.7,13.51-7.53,19.53-5.42,8.52-12.43,15.27-21.37,20.06-5.09,2.72-10.48,4.49-16.08,5.72-.44.1-1.18-.06-.78.83Zm-58.34-69.82c0,.42,0,.84,0,1.26.06,5.48-.54,11.03,1.02,16.37,3.88,13.21,11.88,22.87,24.74,28.32,7.39,3.13,15.08,4.16,22.89,2.76,6.56-1.18,12.73-3.68,18.11-7.84,10.38-8.02,16.39-18.31,16.82-31.64.05-1.59-.47-1.8-1.85-1.78-5.17.07-10.35.03-15.53.03-3.26,0-3.25,0-3.66,3.26-.07.54-.31,1.05-.42,1.58-1.93,8.97-10.05,15.27-18.82,15.95-5.58.44-10.54-1.14-14.8-4.69-4.47-3.73-7.33-8.45-7.45-14.42-.13-6.85-.09-13.71-.04-20.56,0-1.41-.31-1.95-1.84-1.93-5.8.08-11.61.07-17.41,0-1.36-.02-1.82.37-1.79,1.76.08,3.84.03,7.69.03,11.54Zm69.23-24.18c-.83-.07-1.42.06-1.64.96-1.38,5.72-2.81,11.43-4.16,17.15-.24,1-.08,1.75,1.32,2.07,5.61,1.29,11.21,2.65,16.73,4.26,1.66.49,2.09-.02,2.42-1.32,1.49-5.76,2.93-11.53,4.49-17.28.28-1.04-.03-1.09-.88-1.29-2.54-.58-5.04-1.33-7.56-1.96-3.59-.9-7.19-1.75-10.72-2.61Z"/><text class="cls-2" transform="translate(996.33 471.37)"><tspan x="0" y="0">jquery ui</tspan></text></g></g></svg>