<?xml version="1.0" encoding="UTF-8"?><svg id="Layer_1" xmlns="http://www.w3.org/2000/svg" viewBox="0 0 100 100"><defs><style>.cls-1{fill:#000000;}</style></defs><g id="Twiter"><path id="Twiter-2" class="cls-1" d="M0,81.9c10.8,.81,20.51-1.78,29.59-8.5-9.16-1.23-15.6-5.52-19.06-14.44h8.2c.06-.18,.13-.36,.19-.54-9.7-3.33-15.05-9.93-15.72-20.17,2.88,.79,5.6,1.53,8.31,2.28C3.05,30.75,1.1,21.37,6.27,12.91c11.27,12.84,25.2,20.35,42.45,21.47,0-2.67-.28-5.15,.05-7.55,1.1-8.04,5.66-13.66,13.16-16.44,7.36-2.74,14.46-1.66,20.57,3.52,1.62,1.37,3.06,1.58,4.87,.88,3.24-1.25,6.49-2.48,9.96-3.81-1.49,4.5-4.53,7.59-7.58,10.95,3.26-.88,6.52-1.77,9.77-2.65,.16,.14,.31,.29,.47,.43-2.64,2.73-5.15,5.6-7.99,8.11-1.32,1.17-1.92,2.28-1.94,3.95-.12,9.8-2.28,19.13-6.88,27.79-9.49,17.85-24.12,28.52-44.34,31.02-12.89,1.59-25.15-.51-36.58-6.86-.65-.36-1.28-.76-1.91-1.15-.1-.06-.13-.23-.37-.65Z"/></g></svg>